<svg width="20" height="20" viewBox="0 0 20 20" fill="none" xmlns="http://www.w3.org/2000/svg">
<path d="M9.99984 19.0084C9.42484 19.0084 8.88317 18.7167 8.49984 18.2084L7.24984 16.5417C7.22484 16.5084 7.12484 16.4667 7.08317 16.4584H6.6665C3.1915 16.4584 1.0415 15.5167 1.0415 10.8334V6.66669C1.0415 2.98335 2.98317 1.04169 6.6665 1.04169H13.3332C17.0165 1.04169 18.9582 2.98335 18.9582 6.66669V10.8334C18.9582 14.5167 17.0165 16.4584 13.3332 16.4584H12.9165C12.8498 16.4584 12.7915 16.4917 12.7498 16.5417L11.4998 18.2084C11.1165 18.7167 10.5748 19.0084 9.99984 19.0084ZM6.6665 2.29169C3.68317 2.29169 2.2915 3.68335 2.2915 6.66669V10.8334C2.2915 14.6 3.58317 15.2084 6.6665 15.2084H7.08317C7.50817 15.2084 7.9915 15.45 8.24984 15.7917L9.49984 17.4584C9.7915 17.8417 10.2082 17.8417 10.4998 17.4584L11.7498 15.7917C12.0248 15.425 12.4582 15.2084 12.9165 15.2084H13.3332C16.3165 15.2084 17.7082 13.8167 17.7082 10.8334V6.66669C17.7082 3.68335 16.3165 2.29169 13.3332 2.29169H6.6665Z" fill="#B8B8B8"/>
<path d="M9.99984 9.99998C9.53317 9.99998 9.1665 9.62498 9.1665 9.16665C9.1665 8.70831 9.5415 8.33331 9.99984 8.33331C10.4582 8.33331 10.8332 8.70831 10.8332 9.16665C10.8332 9.62498 10.4665 9.99998 9.99984 9.99998Z" fill="#B8B8B8"/>
<path d="M13.3333 9.99998C12.8667 9.99998 12.5 9.62498 12.5 9.16665C12.5 8.70831 12.875 8.33331 13.3333 8.33331C13.7917 8.33331 14.1667 8.70831 14.1667 9.16665C14.1667 9.62498 13.8 9.99998 13.3333 9.99998Z" fill="#B8B8B8"/>
<path d="M6.66683 9.99998C6.20016 9.99998 5.8335 9.62498 5.8335 9.16665C5.8335 8.70831 6.2085 8.33331 6.66683 8.33331C7.12516 8.33331 7.50016 8.70831 7.50016 9.16665C7.50016 9.62498 7.1335 9.99998 6.66683 9.99998Z" fill="#B8B8B8"/>
</svg>
