<svg width="20" height="20" viewBox="0 0 20 20" fill="none" xmlns="http://www.w3.org/2000/svg">
<path d="M10 13.125C8.275 13.125 6.875 11.725 6.875 10C6.875 8.275 8.275 6.875 10 6.875C11.725 6.875 13.125 8.275 13.125 10C13.125 11.725 11.725 13.125 10 13.125ZM10 8.125C8.96667 8.125 8.125 8.96667 8.125 10C8.125 11.0333 8.96667 11.875 10 11.875C11.0333 11.875 11.875 11.0333 11.875 10C11.875 8.96667 11.0333 8.125 10 8.125Z" fill="#B8B8B8"/>
<path d="M12.6748 18.4917C12.4998 18.4917 12.3248 18.4667 12.1498 18.425C11.6332 18.2833 11.1998 17.9583 10.9248 17.5L10.8248 17.3333C10.3332 16.4833 9.65817 16.4833 9.1665 17.3333L9.07484 17.4917C8.79984 17.9583 8.3665 18.2917 7.84984 18.425C7.32484 18.5667 6.78317 18.4917 6.32484 18.2167L4.8915 17.3917C4.38317 17.1 4.0165 16.625 3.85817 16.05C3.70817 15.475 3.78317 14.8833 4.07484 14.375C4.3165 13.95 4.38317 13.5667 4.2415 13.325C4.09984 13.0833 3.7415 12.9417 3.24984 12.9417C2.03317 12.9417 1.0415 11.95 1.0415 10.7333V9.26668C1.0415 8.05001 2.03317 7.05835 3.24984 7.05835C3.7415 7.05835 4.09984 6.91668 4.2415 6.67502C4.38317 6.43335 4.32484 6.05002 4.07484 5.62502C3.78317 5.11668 3.70817 4.51668 3.85817 3.95001C4.00817 3.37501 4.37484 2.90001 4.8915 2.60835L6.33317 1.78335C7.27484 1.22501 8.5165 1.55001 9.08317 2.50835L9.18317 2.67501C9.67484 3.52501 10.3498 3.52501 10.8415 2.67501L10.9332 2.51668C11.4998 1.55001 12.7415 1.22501 13.6915 1.79168L15.1248 2.61668C15.6332 2.90835 15.9998 3.38335 16.1582 3.95835C16.3082 4.53335 16.2332 5.12502 15.9415 5.63335C15.6998 6.05835 15.6332 6.44168 15.7748 6.68335C15.9165 6.92502 16.2748 7.06668 16.7665 7.06668C17.9832 7.06668 18.9748 8.05835 18.9748 9.27501V10.7417C18.9748 11.9583 17.9832 12.95 16.7665 12.95C16.2748 12.95 15.9165 13.0917 15.7748 13.3333C15.6332 13.575 15.6915 13.9583 15.9415 14.3833C16.2332 14.8917 16.3165 15.4917 16.1582 16.0583C16.0082 16.6333 15.6415 17.1083 15.1248 17.4L13.6832 18.225C13.3665 18.4 13.0248 18.4917 12.6748 18.4917ZM9.99984 15.4083C10.7415 15.4083 11.4332 15.875 11.9082 16.7L11.9998 16.8583C12.0998 17.0333 12.2665 17.1583 12.4665 17.2083C12.6665 17.2583 12.8665 17.2333 13.0332 17.1333L14.4748 16.3C14.6915 16.175 14.8582 15.9667 14.9248 15.7167C14.9915 15.4667 14.9582 15.2083 14.8332 14.9917C14.3582 14.175 14.2998 13.3333 14.6665 12.6917C15.0332 12.05 15.7915 11.6833 16.7415 11.6833C17.2748 11.6833 17.6998 11.2583 17.6998 10.725V9.25835C17.6998 8.73335 17.2748 8.30001 16.7415 8.30001C15.7915 8.30001 15.0332 7.93335 14.6665 7.29168C14.2998 6.65002 14.3582 5.80835 14.8332 4.99168C14.9582 4.77501 14.9915 4.51668 14.9248 4.26668C14.8582 4.01668 14.6998 3.81668 14.4832 3.68335L13.0415 2.85835C12.6832 2.64168 12.2082 2.76668 11.9915 3.13335L11.8998 3.29168C11.4248 4.11668 10.7332 4.58335 9.9915 4.58335C9.24984 4.58335 8.55817 4.11668 8.08317 3.29168L7.9915 3.12501C7.78317 2.77501 7.3165 2.65001 6.95817 2.85835L5.5165 3.69168C5.29984 3.81668 5.13317 4.02502 5.0665 4.27502C4.99984 4.52502 5.03317 4.78335 5.15817 5.00002C5.63317 5.81668 5.6915 6.65835 5.32484 7.30002C4.95817 7.94168 4.19984 8.30835 3.24984 8.30835C2.7165 8.30835 2.2915 8.73335 2.2915 9.26668V10.7333C2.2915 11.2583 2.7165 11.6917 3.24984 11.6917C4.19984 11.6917 4.95817 12.0583 5.32484 12.7C5.6915 13.3417 5.63317 14.1833 5.15817 15C5.03317 15.2167 4.99984 15.475 5.0665 15.725C5.13317 15.975 5.2915 16.175 5.50817 16.3083L6.94984 17.1333C7.12484 17.2417 7.33317 17.2667 7.52484 17.2167C7.72484 17.1667 7.8915 17.0333 7.99984 16.8583L8.0915 16.7C8.5665 15.8833 9.25817 15.4083 9.99984 15.4083Z" fill="#B8B8B8"/>
</svg>
