<svg width="166" height="158" viewBox="0 0 166 158" fill="none" xmlns="http://www.w3.org/2000/svg">
<path d="M154.031 53.1363C155.349 53.9208 156.816 54.1063 158.035 53.7706C159.289 53.613 160.574 52.8784 161.492 51.6471C162.438 50.3786 162.774 48.8827 162.529 47.6062C161.238 47.7318 159.902 48.4798 158.957 49.7483C158.243 50.7057 157.877 51.7927 157.846 52.8172C157.425 51.8831 156.672 51.0195 155.647 50.4091C154.289 49.6 152.769 49.4225 151.529 49.8021C151.791 51.0746 152.673 52.3272 154.031 53.1363Z" fill="#C8A45D"/>
<path d="M11.9685 53.1363C10.6507 53.9208 9.18307 54.1063 7.96411 53.7706C6.70999 53.613 5.42536 52.8784 4.50749 51.6471C3.56176 50.3786 3.22552 48.8827 3.47024 47.6062C4.76083 47.7318 6.09652 48.4798 7.04225 49.7483C7.75586 50.7057 8.12195 51.7927 8.15312 52.8172C8.57359 51.8831 9.32632 51.0195 10.3516 50.4091C11.7099 49.6 13.2293 49.4225 14.4695 49.8021C14.2095 51.0746 13.3268 52.3272 11.9685 53.1363Z" fill="#C8A45D"/>
<path d="M160.071 57.9412C159.358 58.8985 158.991 59.9856 158.96 61.0101C158.54 60.076 157.787 59.2123 156.762 58.602C155.404 57.7929 153.884 57.6154 152.644 57.995C152.905 59.2675 153.787 60.5208 155.146 61.3299C156.463 62.1144 157.931 62.2999 159.15 61.9641C160.404 61.8066 161.689 61.0712 162.607 59.8406C163.552 58.5721 163.889 57.0762 163.643 55.7997C162.353 55.9247 161.017 56.6726 160.071 57.9412Z" fill="#C8A45D"/>
<path d="M5.9287 57.9412C6.6423 58.8985 7.00839 59.9856 7.03956 61.0101C7.46004 60.076 8.21277 59.2123 9.23809 58.602C10.5963 57.7929 12.1157 57.6154 13.3559 57.995C13.0946 59.2675 12.2126 60.5208 10.8543 61.3299C9.53653 62.1144 8.06885 62.2999 6.84988 61.9641C5.59576 61.8066 4.31114 61.0712 3.39327 59.8406C2.44754 58.5721 2.1113 57.0762 2.35668 55.7997C3.64661 55.9247 4.98297 56.6726 5.9287 57.9412Z" fill="#C8A45D"/>
<path d="M161.082 65.8203C160.325 66.8361 159.937 67.9896 159.903 69.0766C159.457 68.0854 158.659 67.1685 157.57 66.521C156.129 65.6627 154.517 65.4745 153.201 65.8768C153.478 67.2277 154.414 68.5567 155.855 69.4151C157.253 70.2474 158.81 70.4442 160.104 70.0885C161.434 69.921 162.798 69.1411 163.771 67.8354C164.775 66.4891 165.131 64.9021 164.871 63.5478C163.503 63.6814 162.085 64.4746 161.082 65.8203Z" fill="#C8A45D"/>
<path d="M4.91735 65.8203C5.67473 66.8361 6.0627 67.9896 6.09586 69.0766C6.5422 68.0854 7.3407 67.1685 8.42902 66.521C9.87016 65.6627 11.4824 65.4745 12.7982 65.8768C12.521 67.2277 11.5852 68.5567 10.1441 69.4151C8.74603 70.2474 7.18882 70.4442 5.89557 70.0885C4.56452 69.921 3.20164 69.1411 2.22806 67.8354C1.22463 66.4891 0.867832 64.9021 1.12781 63.5478C2.49666 63.6814 3.91459 64.4746 4.91735 65.8203Z" fill="#C8A45D"/>
<path d="M159.813 78.1099C159.493 77.0388 158.804 75.9964 157.784 75.1879C156.432 74.1168 154.815 73.7053 153.421 73.9353C153.519 75.3495 154.292 76.8314 155.644 77.9024C156.955 78.9416 158.515 79.3545 159.88 79.1683C161.258 79.1796 162.753 78.5713 163.922 77.3739C165.127 76.14 165.707 74.5716 165.626 73.1561C164.213 73.1049 162.662 73.7193 161.457 74.9532C160.547 75.8847 159.994 77.0069 159.813 78.1099Z" fill="#C8A45D"/>
<path d="M6.18675 78.1099C6.50642 77.0388 7.19549 75.9964 8.21616 75.1879C9.56777 74.1168 11.1847 73.7053 12.5794 73.9353C12.4806 75.3495 11.7079 76.8314 10.3563 77.9024C9.04516 78.9416 7.48531 79.3545 6.11977 79.1683C4.74163 79.1796 3.24677 78.5713 2.07754 77.3739C0.872503 76.14 0.292863 74.5716 0.373774 73.1561C1.7864 73.1049 3.3383 73.7193 4.54334 74.9532C5.45325 75.8847 6.00503 77.0069 6.18675 78.1099Z" fill="#C8A45D"/>
<path d="M161.319 84.4113C160.295 85.227 159.605 86.2775 159.287 87.3552C159.101 86.2469 158.542 85.12 157.625 84.1859C156.41 82.9486 154.848 82.3356 153.428 82.3908C153.35 83.8136 153.937 85.3892 155.153 86.6265C156.332 87.8272 157.837 88.4342 159.223 88.419C160.597 88.6024 162.164 88.1823 163.479 87.1338C164.835 86.0528 165.608 84.5602 165.703 83.1387C164.299 82.9114 162.674 83.3302 161.319 84.4113Z" fill="#C8A45D"/>
<path d="M4.68132 84.4113C5.70464 85.227 6.39503 86.2775 6.71337 87.3552C6.89907 86.2469 7.45749 85.12 8.3747 84.1859C9.58969 82.9486 11.1522 82.3356 12.5721 82.3908C12.6497 83.8136 12.0628 85.3892 10.8471 86.6265C9.66794 87.8272 8.16313 88.4342 6.77703 88.419C5.40288 88.6024 3.83639 88.1823 2.52059 87.1338C1.16501 86.0528 0.391713 84.5602 0.296875 83.1387C1.70088 82.9114 3.32573 83.3302 4.68132 84.4113Z" fill="#C8A45D"/>
<path d="M159.346 95.0275C158.076 95.7436 157.131 96.7767 156.59 97.9063C156.581 96.6537 156.166 95.3147 155.322 94.1247C154.204 92.5477 152.593 91.5956 151.02 91.4041C150.684 92.9559 151.051 94.7942 152.17 96.3712C153.255 97.9016 154.803 98.8371 156.331 99.0664C157.811 99.5126 159.609 99.3284 161.242 98.4083C162.924 97.4595 164.039 95.955 164.394 94.4072C162.89 93.9066 161.029 94.0788 159.346 95.0275Z" fill="#C8A45D"/>
<path d="M6.65365 95.0275C7.92435 95.7436 8.86874 96.7767 9.40992 97.9063C9.41854 96.6537 9.83371 95.3147 10.678 94.1247C11.7961 92.5477 13.4071 91.5956 14.9795 91.4041C15.3158 92.9559 14.9483 94.7942 13.8302 96.3712C12.7452 97.9016 11.1966 98.8371 9.66857 99.0664C8.18896 99.5126 6.39102 99.3284 4.75821 98.4083C3.07567 97.4595 1.96082 95.955 1.60535 94.4072C3.10883 93.9066 4.9711 94.0788 6.65365 95.0275Z" fill="#C8A45D"/>
<path d="M155.119 105.567C153.612 106.112 152.399 107.061 151.609 108.188C151.826 106.828 151.618 105.3 150.917 103.855C149.989 101.941 148.414 100.615 146.743 100.121C146.097 101.743 146.163 103.803 147.091 105.718C147.992 107.576 149.502 108.872 151.118 109.399C152.642 110.151 154.626 110.279 156.564 109.578C158.561 108.854 160.043 107.424 160.708 105.81C159.167 104.995 157.116 104.844 155.119 105.567Z" fill="#C8A45D"/>
<path d="M10.8809 105.567C12.3884 106.112 13.6007 107.061 14.3913 108.188C14.1737 106.828 14.3826 105.3 15.083 103.855C16.0108 101.941 17.5859 100.615 19.2579 100.121C19.9038 101.743 19.8375 103.803 18.9097 105.718C18.009 107.576 16.4989 108.872 14.8827 109.399C13.3587 110.151 11.3744 110.279 9.43648 109.578C7.43957 108.854 5.95797 107.424 5.29211 105.81C6.83274 104.995 8.88336 104.844 10.8809 105.567Z" fill="#C8A45D"/>
<path d="M150.042 114.132C148.535 114.678 147.322 115.626 146.532 116.753C146.749 115.393 146.54 113.865 145.84 112.42C144.912 110.506 143.337 109.18 141.666 108.686C141.02 110.308 141.086 112.369 142.014 114.283C142.915 116.141 144.425 117.437 146.041 117.963C147.565 118.716 149.549 118.844 151.487 118.142C153.484 117.419 154.966 115.989 155.632 114.374C154.09 113.56 152.039 113.409 150.042 114.132Z" fill="#C8A45D"/>
<path d="M15.9576 114.132C17.4651 114.678 18.6774 115.626 19.468 116.753C19.2511 115.393 19.4587 113.865 20.1597 112.42C21.0875 110.506 22.6626 109.18 24.3339 108.686C24.9799 110.308 24.9135 112.369 23.9857 114.283C23.0851 116.141 21.575 117.437 19.9587 117.963C18.4347 118.716 16.4504 118.844 14.5125 118.142C12.5156 117.419 11.034 115.989 10.3682 114.374C11.9094 113.56 13.9607 113.409 15.9576 114.132Z" fill="#C8A45D"/>
<path d="M144.772 123.166C143.209 123.517 141.887 124.305 140.96 125.323C141.347 124.001 141.332 122.459 140.818 120.937C140.138 118.921 138.742 117.407 137.146 116.707C136.302 118.235 136.109 120.287 136.789 122.303C137.449 124.26 138.784 125.736 140.322 126.463C141.74 127.401 143.691 127.778 145.702 127.327C147.774 126.862 149.423 125.63 150.287 124.112C148.86 123.11 146.844 122.701 144.772 123.166Z" fill="#C8A45D"/>
<path d="M21.2267 123.166C22.7905 123.517 24.113 124.305 25.0388 125.323C24.6528 124.001 24.6674 122.459 25.1807 120.937C25.8612 118.921 27.2565 117.407 28.8529 116.707C29.6971 118.235 29.8901 120.287 29.2103 122.303C28.5504 124.26 27.2148 125.736 25.6775 126.463C24.2595 127.401 22.3077 127.778 20.2969 127.327C18.225 126.862 16.5756 125.63 15.7122 124.112C17.1394 123.11 19.1548 122.701 21.2267 123.166Z" fill="#C8A45D"/>
<path d="M138.099 130.924C136.505 131.097 135.104 131.733 134.07 132.64C134.601 131.37 134.759 129.836 134.418 128.266C133.967 126.185 132.749 124.525 131.241 123.65C130.232 125.074 129.81 127.092 130.261 129.171C130.699 131.19 131.862 132.807 133.308 133.701C134.611 134.793 136.509 135.386 138.557 135.164C140.668 134.933 142.444 133.894 143.472 132.484C142.167 131.327 140.21 130.694 138.099 130.924Z" fill="#C8A45D"/>
<path d="M27.9012 130.924C29.4949 131.097 30.8963 131.733 31.9302 132.64C31.399 131.37 31.2411 129.836 31.582 128.266C32.033 126.185 33.2513 124.525 34.7594 123.65C35.7688 125.074 36.19 127.092 35.739 129.171C35.3013 131.19 34.1387 132.807 32.6929 133.701C31.389 134.793 29.4909 135.386 27.4423 135.164C25.3313 134.933 23.5553 133.894 22.528 132.484C23.8331 131.327 25.7903 130.694 27.9012 130.924Z" fill="#C8A45D"/>
<path d="M131.038 139.45C129.273 139.545 127.692 140.16 126.5 141.097C127.161 139.73 127.426 138.051 127.145 136.302C126.773 133.985 125.531 132.084 123.923 131.03C122.726 132.536 122.142 134.733 122.514 137.05C122.875 139.298 124.058 141.148 125.597 142.22C126.967 143.5 129.021 144.268 131.289 144.145C133.627 144.019 135.645 142.981 136.86 141.49C135.493 140.138 133.376 139.323 131.038 139.45Z" fill="#C8A45D"/>
<path d="M34.9611 139.45C36.7259 139.545 38.307 140.16 39.4994 141.097C38.8382 139.73 38.5736 138.051 38.8541 136.302C39.2262 133.985 40.4683 132.084 42.076 131.03C43.273 132.536 43.8567 134.733 43.4846 137.05C43.1238 139.298 41.9407 141.148 40.402 142.22C39.0318 143.5 36.9779 144.268 34.7091 144.145C32.3713 144.019 30.3538 142.981 29.1382 141.49C30.507 140.138 32.624 139.323 34.9611 139.45Z" fill="#C8A45D"/>
<path d="M122.711 146.417C120.945 146.358 119.317 146.834 118.048 147.663C118.825 146.36 119.234 144.709 119.106 142.942C118.936 140.601 117.864 138.599 116.354 137.409C115.031 138.806 114.259 140.943 114.429 143.283C114.593 145.554 115.612 147.5 117.052 148.702C118.306 150.097 120.285 151.04 122.556 151.116C124.895 151.194 126.995 150.336 128.335 148.956C127.09 147.49 125.051 146.494 122.711 146.417Z" fill="#C8A45D"/>
<path d="M43.2877 146.417C45.0538 146.358 46.6819 146.834 47.9513 147.663C47.174 146.36 46.7648 144.709 46.8928 142.942C47.0626 140.601 48.135 138.599 49.6451 137.409C50.9682 138.806 51.7402 140.943 51.5704 143.283C51.4059 145.554 50.3873 147.5 48.9474 148.702C47.6933 150.097 45.7137 151.04 43.4435 151.116C41.1037 151.194 39.004 150.336 37.6637 148.956C38.9099 147.49 40.9479 146.494 43.2877 146.417Z" fill="#C8A45D"/>
<path d="M112.35 153.247C110.606 152.966 108.931 153.233 107.567 153.896C108.502 152.7 109.115 151.115 109.209 149.346C109.333 147.002 108.52 144.881 107.171 143.509C105.685 144.729 104.651 146.752 104.525 149.095C104.405 151.369 105.171 153.428 106.449 154.801C107.519 156.343 109.365 157.528 111.608 157.889C113.92 158.261 116.11 157.674 117.612 156.474C116.559 154.862 114.662 153.618 112.35 153.247Z" fill="#C8A45D"/>
<path d="M53.6497 153.247C55.3946 152.966 57.0698 153.233 58.4327 153.896C57.4982 152.7 56.8854 151.115 56.7913 149.346C56.6666 147.002 57.4797 144.881 58.8286 143.509C60.3162 144.729 61.3501 146.752 61.4748 149.095C61.5955 151.369 60.8295 153.428 59.5509 154.801C58.4818 156.343 56.6354 157.528 54.3925 157.889C52.0805 158.261 49.8906 157.674 48.3878 156.474C49.4403 154.862 51.3377 153.618 53.6497 153.247Z" fill="#C8A45D"/>
<path d="M157.226 47.9053C158.015 46.6494 158.316 45.0891 157.932 43.5346C157.548 41.9809 156.554 40.7416 155.271 40.001C154.482 41.2562 154.181 42.8173 154.565 44.3717C154.949 45.9261 155.943 47.1647 157.226 47.9053Z" fill="#C8A45D"/>
<path d="M8.77336 47.9053C7.98415 46.6494 7.68306 45.0891 8.06772 43.5346C8.45238 41.9809 9.44585 40.7416 10.7285 40.001C11.5177 41.2562 11.8188 42.8173 11.4348 44.3717C11.0501 45.9261 10.0567 47.1647 8.77336 47.9053Z" fill="#C8A45D"/>
<path d="M141.941 57.8454C135.626 31.1573 138.845 19.8609 138.845 19.8609C138.845 19.8609 101.079 11.9167 83.1237 0C83.0826 0.0232696 83.0415 0.0471957 82.9997 0.0704652C82.9586 0.0471957 82.9168 0.0232696 82.8757 0C64.9208 11.9167 27.154 19.8609 27.154 19.8609C27.154 19.8609 30.3732 31.1566 24.0582 57.8454C20.4955 72.9002 20.3436 116.39 82.9991 143.231C145.655 116.39 145.503 72.9002 141.941 57.8454ZM67.7076 78.4304L52.2914 92.0643L36.8938 78.322L47.3943 44.3145H49.4668L39.2946 77.334H65.2849L55.1127 44.3145H57.1852L67.7076 78.4304ZM97.1982 116.56H68.8012V109.195H79.3674V41.2529H43.7056V37.7771H79.3674V32.9776H86.6321V37.7771H122.294V41.2529H86.6321V109.195H97.1982V116.56ZM113.709 92.0643L98.3443 78.2336L108.815 44.3145H110.887L100.716 77.334H126.706L116.534 44.3145H118.606L129.115 78.3266L113.709 92.0643Z" fill="#C8A45D"/>
</svg>
