<svg width="20" height="20" viewBox="0 0 20 20" fill="none" xmlns="http://www.w3.org/2000/svg">
<path d="M17.5 8.125C17.1583 8.125 16.875 7.84167 16.875 7.5V3.125H12.5C12.1583 3.125 11.875 2.84167 11.875 2.5C11.875 2.15833 12.1583 1.875 12.5 1.875H17.5C17.8417 1.875 18.125 2.15833 18.125 2.5V7.5C18.125 7.84167 17.8417 8.125 17.5 8.125Z" fill="#C8A45D"/>
<path d="M7.5 18.125H2.5C2.15833 18.125 1.875 17.8417 1.875 17.5V12.5C1.875 12.1583 2.15833 11.875 2.5 11.875C2.84167 11.875 3.125 12.1583 3.125 12.5V16.875H7.5C7.84167 16.875 8.125 17.1583 8.125 17.5C8.125 17.8417 7.84167 18.125 7.5 18.125Z" fill="#C8A45D"/>
<path d="M11.2501 9.37511C11.0918 9.37511 10.9334 9.31678 10.8084 9.19178C10.5668 8.95011 10.5668 8.55011 10.8084 8.30845L17.0584 2.05845C17.3001 1.81678 17.7001 1.81678 17.9418 2.05845C18.1834 2.30011 18.1834 2.70011 17.9418 2.94178L11.6918 9.19178C11.5668 9.31678 11.4084 9.37511 11.2501 9.37511Z" fill="#C8A45D"/>
<path d="M2.50011 18.1251C2.34178 18.1251 2.18345 18.0668 2.05845 17.9418C1.81678 17.7001 1.81678 17.3001 2.05845 17.0584L8.30845 10.8084C8.55011 10.5668 8.95011 10.5668 9.19178 10.8084C9.43345 11.0501 9.43345 11.4501 9.19178 11.6918L2.94178 17.9418C2.81678 18.0668 2.65845 18.1251 2.50011 18.1251Z" fill="#C8A45D"/>
</svg>
