<svg width="193" height="235" viewBox="0 0 193 235" fill="none" xmlns="http://www.w3.org/2000/svg">
<g clip-path="url(#clip0_548_3645)">
<path d="M115.561 42.6481H77.458V47.7025H115.561V42.6481Z" fill="url(#paint0_linear_548_3645)"/>
<path d="M97.1777 14.5563C96.9998 14.3793 96.7595 14.28 96.509 14.28C96.2585 14.28 96.0181 14.3793 95.8403 14.5563L65.1681 44.6827C65.0956 44.7553 65.0381 44.8416 64.9989 44.9365C64.9597 45.0314 64.9395 45.1332 64.9395 45.236C64.9395 45.3388 64.9597 45.4405 64.9989 45.5355C65.0381 45.6304 65.0956 45.7166 65.1681 45.7892L67.0533 47.7203C67.1255 47.7935 67.2113 47.8516 67.306 47.8912C67.4006 47.9309 67.5021 47.9513 67.6047 47.9513C67.7072 47.9513 67.8088 47.9309 67.9034 47.8912C67.998 47.8516 68.0839 47.7935 68.156 47.7203L96.5196 19.8784L124.887 47.7382C124.959 47.8109 125.045 47.8686 125.14 47.908C125.234 47.9474 125.336 47.9677 125.438 47.9677C125.541 47.9677 125.642 47.9474 125.737 47.908C125.831 47.8686 125.917 47.8109 125.989 47.7382L127.875 45.8071C127.947 45.7345 128.005 45.6483 128.044 45.5533C128.083 45.4584 128.103 45.3566 128.103 45.2538C128.103 45.1511 128.083 45.0493 128.044 44.9543C128.005 44.8594 127.947 44.7732 127.875 44.7006L97.1777 14.5563Z" fill="url(#paint1_linear_548_3645)"/>
<path d="M103.153 32.957C101.563 32.4075 100.128 31.4815 98.9692 30.2575C97.8108 29.0335 96.9632 27.5474 96.4983 25.9251C96.0343 27.5473 95.1874 29.0334 94.0296 30.2575C92.8717 31.4815 91.4369 32.4075 89.8467 32.957C91.4381 33.5032 92.8747 34.4266 94.0346 35.6489C95.1944 36.8712 96.0432 38.3563 96.509 39.9781C96.9738 38.3587 97.8202 36.8753 98.9767 35.6532C100.133 34.4312 101.566 33.5064 103.153 32.957Z" fill="url(#paint2_linear_548_3645)"/>
<path d="M192.214 94.7162H191.769L170.491 36.648C171.592 36.186 172.528 35.4023 173.178 34.399C173.828 33.3956 174.163 32.2191 174.137 31.0225C174.137 27.6922 171.647 25.5362 168.599 25.5362C165.551 25.5362 163.061 27.6779 163.061 31.0225C163.061 32.154 163.352 32.6644 163.85 33.5675C155.028 34.4726 146.129 32.8644 138.176 28.9272C136.084 27.892 134.078 26.9676 132.161 26.1323C129.656 18.4939 124.803 11.8485 118.3 7.1503C111.796 2.45206 103.977 -0.0573773 95.9634 -0.0177257C87.9502 0.0219258 80.1555 2.60863 73.6986 7.37099C67.2417 12.1334 62.4546 18.8264 60.0247 26.4892C58.3648 27.2317 56.6313 28.0455 54.8244 28.9308C46.8743 32.8585 37.9827 34.4605 29.1676 33.5532C29.6656 32.6502 29.9537 32.1254 29.9537 31.0082C29.9537 27.6779 27.4638 25.5219 24.419 25.5219C21.3742 25.5219 18.8523 27.6922 18.8523 31.0225C18.827 32.2191 19.1612 33.3956 19.8115 34.399C20.4618 35.4023 21.398 36.186 22.4982 36.648L1.23083 94.7162H0.786207C0.640273 94.7157 0.497106 94.7561 0.372879 94.833C0.248651 94.9099 0.148312 95.02 0.0831959 95.1511C0.0180798 95.2822 -0.00921874 95.4289 0.00438369 95.5747C0.0179861 95.7205 0.0719475 95.8596 0.160173 95.9762C5.30717 102.687 14.2139 107.127 24.3479 107.127C34.4818 107.127 43.385 102.687 48.5356 95.9762C48.6238 95.8596 48.6777 95.7205 48.6913 95.5747C48.7049 95.4289 48.6776 95.2822 48.6125 95.1511C48.5474 95.02 48.4471 94.9099 48.3228 94.833C48.1986 94.7561 48.0555 94.7157 47.9095 94.7162H47.4649L26.4785 37.4797C32.0986 38.2685 44.6193 39.0931 58.9861 34.1315C64.8277 32.0836 70.7944 30.4144 76.8494 29.1342L87.3532 18.8184C85.5747 18.8934 77.9876 19.4859 65.9863 24.0727C68.6371 18.3212 72.8657 13.4465 78.1773 10.0193C83.4888 6.59209 89.6633 4.75424 95.978 4.72091C102.293 4.68758 108.486 6.46014 113.833 9.83107C119.18 13.202 123.46 18.0318 126.171 23.755C114.657 19.4717 107.365 18.8898 105.647 18.8184L116.151 29.1342C122.206 30.4148 128.172 32.084 134.014 34.1315C148.392 39.0931 160.898 38.2685 166.518 37.4797L145.532 94.734H145.087C144.941 94.7342 144.799 94.7752 144.675 94.8523C144.551 94.9294 144.452 95.0396 144.387 95.1705C144.322 95.3015 144.295 95.4479 144.309 95.5934C144.323 95.7389 144.377 95.8777 144.465 95.9941C149.612 102.705 158.515 107.145 168.652 107.145C178.79 107.145 187.686 102.705 192.84 95.9941C192.934 95.8776 192.992 95.7367 193.008 95.5881C193.025 95.4394 192.999 95.2891 192.933 95.1549C192.867 95.0206 192.765 94.908 192.637 94.8303C192.51 94.7526 192.363 94.713 192.214 94.7162ZM23.5298 94.7162H2.9631L23.5298 38.5933V94.7162ZM45.7255 94.7162H25.1589V38.5933L45.7255 94.7162ZM24.3443 34.3671C24.1354 33.6335 23.7536 32.9611 23.231 32.4069C22.7085 31.8527 22.0606 31.4329 21.3422 31.1831C22.0632 30.9341 22.7138 30.5144 23.2388 29.9595C23.7639 29.4047 24.148 28.731 24.3585 27.9956C24.5691 28.731 24.9532 29.4047 25.4782 29.9595C26.0033 30.5144 26.6539 30.9341 27.3749 31.1831C26.6512 31.429 25.9976 31.8471 25.4699 32.4015C24.9421 32.956 24.5559 33.6303 24.3443 34.3671ZM167.841 94.7162H147.26L167.827 38.5933L167.841 94.7162ZM168.656 34.3671C168.445 33.6323 168.061 32.9594 167.535 32.4052C167.01 31.8509 166.36 31.4318 165.64 31.1831C166.36 30.9333 167.01 30.5133 167.535 29.9586C168.06 29.4038 168.445 28.7306 168.656 27.9956C168.866 28.7306 169.25 29.404 169.774 29.9588C170.298 30.5137 170.948 30.9336 171.669 31.1831C170.948 31.4315 170.298 31.8506 169.774 32.4049C169.249 32.9592 168.866 33.6323 168.656 34.3671ZM169.47 94.7162V38.5933L190.034 94.7162H169.47Z" fill="url(#paint3_linear_548_3645)"/>
<path d="M115.479 187.89H77.376V192.944H115.479V187.89Z" fill="url(#paint4_linear_548_3645)"/>
<path d="M120.576 197.995H72.2822V203.05H120.576V197.995Z" fill="url(#paint5_linear_548_3645)"/>
<path d="M77.4287 62.8585V67.9128H77.4572H115.56V62.8585H115.531H77.4287Z" fill="url(#paint6_linear_548_3645)"/>
<path d="M77.4577 52.7533H72.332V57.8077H77.4577H115.56H120.626V52.7533H115.56H77.4577Z" fill="url(#paint7_linear_548_3645)"/>
<path d="M101.044 168.304V144.667H77.4893V182.861H115.528V173.759H86.5561V168.304H101.044ZM86.5561 153.769H91.9734V159.199H86.5561V153.769Z" fill="url(#paint8_linear_548_3645)"/>
<path d="M115.529 71.9856H91.974V81.0878H106.458V86.5241H91.974V124.696H101.044V95.6227H106.458V130.132H86.5567V86.5241H77.4863V139.235H106.458V168.304H115.529V71.9856Z" fill="url(#paint9_linear_548_3645)"/>
<path d="M86.5596 71.9856H77.4893V81.0878H86.5596V71.9856Z" fill="url(#paint10_linear_548_3645)"/>
<path d="M41.2154 218.284C39.4796 218.663 39.1772 218.955 39.1274 220.701C39.099 221.454 39.0492 222.032 39.0492 224.552V234.95H38.4907L26.9909 220.951V227.811C26.9909 230.228 27.0229 230.991 27.0656 231.83C27.151 233.49 27.3928 233.908 29.6409 234.24V234.597H23.7718V234.24C25.6819 233.904 25.9594 233.572 26.0447 231.873C26.0839 231.038 26.155 230.053 26.155 227.811V220.772C26.1679 220.323 26.0287 219.882 25.7602 219.523C25.1128 218.652 24.5437 218.452 23.4766 218.284V217.927H27.9157L38.2311 230.199V224.552C38.2311 222.032 38.1741 221.472 38.1386 220.701C38.0532 218.955 37.5517 218.559 35.3605 218.284V217.927H41.2083L41.2154 218.284Z" fill="#C8A45D"/>
<path d="M58.563 234.615V234.258C60.2064 233.901 60.3593 233.661 59.9503 232.473C59.6337 231.534 59.1286 230.01 58.5275 228.329H53.6615C53.1813 229.671 52.7438 230.881 52.4094 231.898C51.8296 233.629 52.0964 233.843 54.227 234.243V234.6H48.7314V234.243C50.3321 233.968 50.702 233.69 51.6162 231.359L56.9268 217.688L57.503 217.602C59.1073 222.196 60.7719 226.751 62.4829 231.348C63.3437 233.733 63.6175 233.901 65.1969 234.243V234.6L58.563 234.615ZM56.1478 221.457C55.3439 223.599 54.693 225.527 53.9496 227.526H58.218L56.1478 221.457Z" fill="#C8A45D"/>
<path d="M90.7251 218.284C88.7687 218.559 88.5908 218.784 88.5908 221.043V231.498C88.5908 233.761 88.79 233.926 90.7251 234.24V234.597H83.7747V234.24C85.7488 233.958 85.8875 233.708 85.8875 231.498V225.969H78.1261V231.498C78.1261 233.74 78.3431 233.94 80.2603 234.24V234.597H73.3135V234.24C75.2485 233.983 75.4263 233.758 75.4263 231.498V221.043C75.4263 218.72 75.2236 218.591 73.3135 218.284V217.927H80.2639V218.284C78.3395 218.584 78.1297 218.755 78.1297 221.043V225.184H85.8911V221.043C85.8911 218.78 85.6883 218.566 83.7782 218.284V217.927H90.7286L90.7251 218.284Z" fill="#C8A45D"/>
<path d="M100.13 217.909H107.045V218.266C105.085 218.623 104.911 218.791 104.911 221.097V225.791C105.393 225.563 105.834 225.254 106.212 224.877C107.904 223.305 109.51 221.644 111.025 219.901C111.872 218.923 111.736 218.709 110.399 218.391L109.833 218.273V217.916H115.66V218.273C113.739 218.555 113.213 218.848 111.872 220.155C110.531 221.461 108.873 223.121 107.247 224.795C109.111 227.183 111.551 230.192 113.23 232.112C114.671 233.733 115.076 234.004 116.474 234.218V234.575H111.768C109.99 232.409 107.521 229.289 105.906 227.244C105.369 226.53 105.131 226.28 104.907 226.194V231.334C104.907 233.715 105.113 233.797 107.041 234.19V234.547H100.13V234.19C102.022 233.858 102.239 233.719 102.239 231.334V221.133C102.239 218.78 102.036 218.609 100.13 218.277V217.909Z" fill="#C8A45D"/>
<path d="M140.286 218.284C138.333 218.541 138.297 219.155 138.219 220.308C138.176 221.022 138.119 221.929 138.119 223.985V227.161C138.119 229.753 137.877 231.773 136.444 233.308C135.324 234.479 133.758 235 131.82 235C130.201 235 128.619 234.643 127.473 233.694C126.018 232.501 125.513 230.899 125.513 228.125V221.343C125.513 218.845 125.36 218.595 123.45 218.277V217.92H130.265V218.277C128.32 218.634 128.206 218.841 128.206 221.343V228.211C128.206 231.78 129.757 233.69 132.887 233.69C136.284 233.69 137.283 231.748 137.283 227.204V223.97C137.283 221.921 137.241 220.993 137.173 220.205C137.081 218.93 136.817 218.484 134.609 218.277V217.92H140.278L140.286 218.284Z" fill="#C8A45D"/>
<path d="M162.527 234.615V234.258C164.434 233.901 164.533 233.701 164.562 231.045L164.636 220.126C162.602 224.72 158.725 233.501 158.308 234.615H157.953C157.554 233.544 154.438 225.88 152.183 220.494C151.828 229.018 151.81 231.456 151.828 232.373C151.863 233.611 152.354 233.951 154.317 234.24V234.597H148.47V234.24C150.248 233.993 150.604 233.547 150.75 232.416C150.867 231.488 150.96 230.074 151.532 220.147C151.564 219.369 151.379 218.523 149.142 218.284V217.927H153.827L159.287 230.36L164.999 217.927H169.52V218.284C167.357 218.641 167.176 218.859 167.194 221.258L167.279 231.045C167.304 233.626 167.454 233.872 169.52 234.258V234.615H162.527Z" fill="#C8A45D"/>
</g>
<defs>
<linearGradient id="paint0_linear_548_3645" x1="77.458" y1="45.1753" x2="115.561" y2="45.1753" gradientUnits="userSpaceOnUse">
<stop stop-color="#C4A15B"/>
<stop offset="0.29" stop-color="#C6A35D"/>
<stop offset="0.39" stop-color="#CDA964"/>
<stop offset="0.47" stop-color="#D8B36F"/>
<stop offset="0.5" stop-color="#E0BA77"/>
<stop offset="0.53" stop-color="#D8B36F"/>
<stop offset="0.61" stop-color="#CDA964"/>
<stop offset="0.71" stop-color="#C6A35D"/>
<stop offset="1" stop-color="#C4A15B"/>
</linearGradient>
<linearGradient id="paint1_linear_548_3645" x1="64.9334" y1="31.1187" x2="128.085" y2="31.1187" gradientUnits="userSpaceOnUse">
<stop stop-color="#C4A15B"/>
<stop offset="0.29" stop-color="#C6A35D"/>
<stop offset="0.39" stop-color="#CDA964"/>
<stop offset="0.47" stop-color="#D8B36F"/>
<stop offset="0.5" stop-color="#E0BA77"/>
<stop offset="0.53" stop-color="#D8B36F"/>
<stop offset="0.61" stop-color="#CDA964"/>
<stop offset="0.71" stop-color="#C6A35D"/>
<stop offset="1" stop-color="#C4A15B"/>
</linearGradient>
<linearGradient id="paint2_linear_548_3645" x1="89.8574" y1="32.957" x2="103.164" y2="32.957" gradientUnits="userSpaceOnUse">
<stop stop-color="#C4A15B"/>
<stop offset="0.29" stop-color="#C6A35D"/>
<stop offset="0.39" stop-color="#CDA964"/>
<stop offset="0.47" stop-color="#D8B36F"/>
<stop offset="0.5" stop-color="#E0BA77"/>
<stop offset="0.53" stop-color="#D8B36F"/>
<stop offset="0.61" stop-color="#CDA964"/>
<stop offset="0.71" stop-color="#C6A35D"/>
<stop offset="1" stop-color="#C4A15B"/>
</linearGradient>
<linearGradient id="paint3_linear_548_3645" x1="0.000107055" y1="53.5637" x2="193" y2="53.5637" gradientUnits="userSpaceOnUse">
<stop stop-color="#C4A15B"/>
<stop offset="0.29" stop-color="#C6A35D"/>
<stop offset="0.39" stop-color="#CDA964"/>
<stop offset="0.47" stop-color="#D8B36F"/>
<stop offset="0.5" stop-color="#E0BA77"/>
<stop offset="0.53" stop-color="#D8B36F"/>
<stop offset="0.61" stop-color="#CDA964"/>
<stop offset="0.71" stop-color="#C6A35D"/>
<stop offset="1" stop-color="#C4A15B"/>
</linearGradient>
<linearGradient id="paint4_linear_548_3645" x1="77.376" y1="190.417" x2="115.479" y2="190.417" gradientUnits="userSpaceOnUse">
<stop stop-color="#C4A15B"/>
<stop offset="0.29" stop-color="#C6A35D"/>
<stop offset="0.39" stop-color="#CDA964"/>
<stop offset="0.47" stop-color="#D8B36F"/>
<stop offset="0.5" stop-color="#E0BA77"/>
<stop offset="0.53" stop-color="#D8B36F"/>
<stop offset="0.61" stop-color="#CDA964"/>
<stop offset="0.71" stop-color="#C6A35D"/>
<stop offset="1" stop-color="#C4A15B"/>
</linearGradient>
<linearGradient id="paint5_linear_548_3645" x1="72.2822" y1="200.522" x2="120.576" y2="200.522" gradientUnits="userSpaceOnUse">
<stop stop-color="#C4A15B"/>
<stop offset="0.29" stop-color="#C6A35D"/>
<stop offset="0.39" stop-color="#CDA964"/>
<stop offset="0.47" stop-color="#D8B36F"/>
<stop offset="0.5" stop-color="#E0BA77"/>
<stop offset="0.53" stop-color="#D8B36F"/>
<stop offset="0.61" stop-color="#CDA964"/>
<stop offset="0.71" stop-color="#C6A35D"/>
<stop offset="1" stop-color="#C4A15B"/>
</linearGradient>
<linearGradient id="paint6_linear_548_3645" x1="77.4252" y1="65.3856" x2="115.56" y2="65.3856" gradientUnits="userSpaceOnUse">
<stop stop-color="#C4A15B"/>
<stop offset="0.29" stop-color="#C6A35D"/>
<stop offset="0.39" stop-color="#CDA964"/>
<stop offset="0.47" stop-color="#D8B36F"/>
<stop offset="0.5" stop-color="#E0BA77"/>
<stop offset="0.53" stop-color="#D8B36F"/>
<stop offset="0.61" stop-color="#CDA964"/>
<stop offset="0.71" stop-color="#C6A35D"/>
<stop offset="1" stop-color="#C4A15B"/>
</linearGradient>
<linearGradient id="paint7_linear_548_3645" x1="72.332" y1="55.2805" x2="120.626" y2="55.2805" gradientUnits="userSpaceOnUse">
<stop stop-color="#C4A15B"/>
<stop offset="0.29" stop-color="#C6A35D"/>
<stop offset="0.39" stop-color="#CDA964"/>
<stop offset="0.47" stop-color="#D8B36F"/>
<stop offset="0.5" stop-color="#E0BA77"/>
<stop offset="0.53" stop-color="#D8B36F"/>
<stop offset="0.61" stop-color="#CDA964"/>
<stop offset="0.71" stop-color="#C6A35D"/>
<stop offset="1" stop-color="#C4A15B"/>
</linearGradient>
<linearGradient id="paint8_linear_548_3645" x1="77.4893" y1="163.757" x2="115.528" y2="163.757" gradientUnits="userSpaceOnUse">
<stop stop-color="#C4A15B"/>
<stop offset="0.29" stop-color="#C6A35D"/>
<stop offset="0.39" stop-color="#CDA964"/>
<stop offset="0.47" stop-color="#D8B36F"/>
<stop offset="0.5" stop-color="#E0BA77"/>
<stop offset="0.53" stop-color="#D8B36F"/>
<stop offset="0.61" stop-color="#CDA964"/>
<stop offset="0.71" stop-color="#C6A35D"/>
<stop offset="1" stop-color="#C4A15B"/>
</linearGradient>
<linearGradient id="paint9_linear_548_3645" x1="77.4899" y1="120.145" x2="115.529" y2="120.145" gradientUnits="userSpaceOnUse">
<stop stop-color="#C4A15B"/>
<stop offset="0.29" stop-color="#C6A35D"/>
<stop offset="0.39" stop-color="#CDA964"/>
<stop offset="0.47" stop-color="#D8B36F"/>
<stop offset="0.5" stop-color="#E0BA77"/>
<stop offset="0.53" stop-color="#D8B36F"/>
<stop offset="0.61" stop-color="#CDA964"/>
<stop offset="0.71" stop-color="#C6A35D"/>
<stop offset="1" stop-color="#C4A15B"/>
</linearGradient>
<linearGradient id="paint10_linear_548_3645" x1="80.7546" y1="76.5438" x2="100.734" y2="76.4517" gradientUnits="userSpaceOnUse">
<stop stop-color="#C4A15B"/>
<stop offset="0.29" stop-color="#C6A35D"/>
<stop offset="0.39" stop-color="#CDA964"/>
<stop offset="0.47" stop-color="#D8B36F"/>
<stop offset="0.5" stop-color="#E0BA77"/>
<stop offset="0.53" stop-color="#D8B36F"/>
<stop offset="0.61" stop-color="#CDA964"/>
<stop offset="0.71" stop-color="#C6A35D"/>
<stop offset="1" stop-color="#C4A15B"/>
</linearGradient>
<clipPath id="clip0_548_3645">
<rect width="193" height="235" fill="white"/>
</clipPath>
</defs>
</svg>
