<svg width="24" height="24" viewBox="0 0 24 24" fill="none" xmlns="http://www.w3.org/2000/svg">
<path d="M20.5403 19.04C20.3903 19.19 20.2003 19.26 20.0103 19.26C19.8203 19.26 19.6303 19.19 19.4803 19.04L14.5303 14.09L15.0603 13.56L15.5903 13.03L20.5403 17.98C20.8303 18.27 20.8303 18.75 20.5403 19.04Z" fill="#C8A45D"/>
<path opacity="0.2" d="M6.47035 9.27997L12.2704 15.08C12.6604 15.47 12.6604 16.1 12.2704 16.49L11.3703 17.4C10.5603 18.2 9.28035 18.2 8.48035 17.4L4.14035 13.06C3.35035 12.27 3.35035 10.98 4.14035 10.18L5.05036 9.26997C5.44036 8.88997 6.08035 8.88997 6.47035 9.27997Z" fill="#C8A45D"/>
<path d="M18.5895 10.1899L14.7795 13.9899C14.3795 14.3899 13.7395 14.3899 13.3395 13.9899L7.56953 8.21994C7.16953 7.81994 7.16953 7.17994 7.56953 6.77994L11.3795 2.96994C12.1695 2.17994 13.4595 2.17994 14.2595 2.96994L18.5995 7.30994C19.3795 8.09994 19.3795 9.37994 18.5895 10.1899Z" fill="#C8A45D"/>
<path d="M8 21.75H2C1.59 21.75 1.25 21.41 1.25 21C1.25 20.59 1.59 20.25 2 20.25H8C8.41 20.25 8.75 20.59 8.75 21C8.75 21.41 8.41 21.75 8 21.75Z" fill="#C8A45D"/>
</svg>
