<svg width="94" height="94" viewBox="0 0 94 94" fill="none" xmlns="http://www.w3.org/2000/svg">
<circle cx="47.3718" cy="47.1312" r="46.4153" fill="#C8A45D"/>
<path fill-rule="evenodd" clip-rule="evenodd" d="M59.2266 37.0074L47.7461 32.2479C47.4585 32.1287 47.1353 32.1286 46.8477 32.2479L35.3673 37.0074C34.93 37.1887 34.645 37.615 34.645 38.0877V43.8735C34.645 51.8402 39.4673 59.0065 46.8542 62.0171C47.138 62.1327 47.4558 62.1327 47.7396 62.0171C55.1264 59.0065 59.9488 51.8403 59.9488 43.8735V38.0877C59.9488 37.615 59.6639 37.1887 59.2266 37.0074ZM46.6172 48.7589L52.5362 42.8488C53.0739 42.3119 53.9458 42.3118 54.4836 42.8488C55.0214 43.3858 55.0214 44.2564 54.4836 44.7934L47.5909 51.6758C47.053 52.2129 46.1812 52.2127 45.6435 51.6758L41.795 47.833C41.2571 47.296 41.2571 46.4254 41.795 45.8884C42.3328 45.3515 43.2047 45.3514 43.7424 45.8884L46.6172 48.7589Z" fill="white"/>
</svg>
